<svg width="48" height="48" viewBox="0 0 48 48" fill="none" xmlns="http://www.w3.org/2000/svg">
<g id="ic-app">
<path id="Vector" d="M48 32.646C48 36.7181 46.3713 40.6235 43.4722 43.5029C40.5731 46.3823 36.6411 48 32.5412 48H15.4588C11.3589 48 7.42686 46.3823 4.52777 43.5029C1.62869 40.6235 0 36.7181 0 32.646V15.354C0 11.2819 1.62869 7.37653 4.52777 4.49709C7.42686 1.61765 11.3589 0 15.4588 0H32.5412C36.6411 0 40.5731 1.61765 43.4722 4.49709C46.3713 7.37653 48 11.2819 48 15.354V32.646ZM33.9329 28.5127C29.253 35.8442 19.4019 36.6166 14.6401 28.7837C13.9397 27.6183 12.9846 27.3473 11.7749 27.9706L10.4923 28.6347C9.48266 29.1496 9.24161 29.8995 9.76919 30.8842C12.2524 35.6093 15.8772 38.4009 20.6435 39.2592C28.5935 40.6957 34.5242 37.8137 38.4355 30.6132C38.9267 29.7098 38.7084 29.0367 37.7806 28.594L36.1978 27.8622C35.8056 27.6762 35.3583 27.6397 34.9408 27.7596C34.5233 27.8795 34.1646 28.1475 33.9329 28.5127Z" fill="#ED3125"/>
</g>
</svg>
