<svg width="40" height="40" viewBox="0 0 40 40" fill="none" xmlns="http://www.w3.org/2000/svg">
<g id="body">
<path id="Vector" d="M40 20C40 25.3043 37.8929 30.3914 34.1421 34.1421C30.3914 37.8929 25.3043 40 20 40C14.6957 40 9.60859 37.8929 5.85787 34.1421C2.10714 30.3914 0 25.3043 0 20C0 14.6957 2.10714 9.60859 5.85787 5.85787C9.60859 2.10714 14.6957 0 20 0C25.3043 0 30.3914 2.10714 34.1421 5.85787C37.8929 9.60859 40 14.6957 40 20ZM24.673 27.1093C18.8551 29.6522 14.3285 28.1844 11.0934 22.7059C10.8005 22.2133 10.3844 22.0636 9.84523 22.2566L6.04094 23.5946C5.93767 23.6313 5.8428 23.6883 5.76197 23.7623C5.68113 23.8362 5.61597 23.9257 5.57034 24.0253C5.52471 24.125 5.49955 24.2327 5.49635 24.3423C5.49314 24.4518 5.51195 24.5609 5.55167 24.663C10.5741 37.4039 29.2062 37.7034 34.3185 24.663C34.5249 24.1438 34.3618 23.7943 33.8293 23.6146L29.7753 22.2366C29.2628 22.0702 28.8867 22.2267 28.647 22.7059C27.5287 24.9692 26.204 26.437 24.673 27.1093Z" fill="#ED3125"/>
</g>
</svg>
