<svg xmlns="http://www.w3.org/2000/svg" width="24" height="24" viewBox="0 0 24 24" fill="none">
  <path fill-rule="evenodd" clip-rule="evenodd" d="M3 10.5444C3 6.37775 6.37776 3 10.5444 3C14.7111 3 18.0889 6.37775 18.0889 10.5444C18.0889 12.1885 17.5629 13.7099 16.6701 14.9493L22 20.2791L20.2791 22L14.9492 16.6701C13.7098 17.5629 12.1885 18.0888 10.5444 18.0888C6.37776 18.0888 3 14.7111 3 10.5444ZM10.5444 5.43368C7.72184 5.43368 5.43369 7.72183 5.43369 10.5444C5.43369 13.367 7.72184 15.6551 10.5444 15.6551C13.367 15.6551 15.6552 13.367 15.6552 10.5444C15.6552 7.72183 13.367 5.43368 10.5444 5.43368Z" fill="#040415" fill-opacity="0.47"/>
</svg>