<svg width="24" height="24" viewBox="0 0 24 24" fill="none" xmlns="http://www.w3.org/2000/svg">
<path d="M7.38272 8.83963C7.38272 7.4335 6.81482 6.00012 5.11111 6.00012C3.40741 6.00012 2.83951 7.40681 2.83951 8.83963C2.83951 10.2724 3.8464 11.3952 5.11111 11.3952C6.37583 11.3952 7.38272 10.2458 7.38272 8.83963ZM0.598568 14.8906C1.196 14.1751 2.34316 13.3147 4.01847 13.0432L4.54321 14.0927L4.05652 17.5001H0V16.2019C0.0335062 15.6374 0.256691 15.3001 0.598568 14.89V14.8906ZM5.67901 14.0927L6.20375 13.0432C7.87906 13.3147 9.02622 14.1751 9.62365 14.8906C9.96553 15.3001 10.1887 15.6374 10.2222 16.2025V17.5001H6.1657L5.67901 14.0927Z" fill="#0E0E0E"/>
</svg>
