<svg width="24" height="24" viewBox="0 0 24 24" fill="none" xmlns="http://www.w3.org/2000/svg">
<path d="M0 6H2.6L2.3 13.5H0.3L0 6ZM2.549 16.25C2.549 16.5815 2.4173 16.8995 2.18288 17.1339C1.94846 17.3683 1.63052 17.5 1.299 17.5C0.967479 17.5 0.649537 17.3683 0.415116 17.1339C0.180696 16.8995 0.0489998 16.5815 0.0489998 16.25C0.0489998 15.9185 0.180696 15.6005 0.415116 15.3661C0.649537 15.1317 0.967479 15 1.299 15C1.63052 15 1.94846 15.1317 2.18288 15.3661C2.4173 15.6005 2.549 15.9185 2.549 16.25Z" fill="#0E0E0E"/>
</svg>
